HIERARCHY
ROOT Hips
{
  OFFSET 0 89.5177 0.535
  CHANNELS 6 Xposition Yposition Zposition Zrotation Xrotation Yrotation
  JOINT Spine
  {
    OFFSET 12.0259 -0.162855 1.69034e-005
    CHANNELS 3 Zrotation Xrotation Yrotation
    JOINT Spine1
    {
      OFFSET 15.3169 -0.0121922 0
      CHANNELS 3 Zrotation Xrotation Yrotation
      JOINT Spine2
      {
        OFFSET 15.3176 -0.0121908 0
        CHANNELS 3 Zrotation Xrotation Yrotation
        JOINT Neck
        {
          OFFSET 19.9142 1.56338 0
          CHANNELS 3 Zrotation Xrotation Yrotation
          JOINT Head
          {
            OFFSET 6.92651 0 0
            CHANNELS 3 Zrotation Xrotation Yrotation
            End Site
            {
              OFFSET 20.7666 0 0
            }
          }
          JOINT LeftShoulder
          {
            OFFSET -6.20654 0.708824 7.28219
            CHANNELS 3 Zrotation Xrotation Yrotation
            JOINT LeftArm
            {
              OFFSET 14.108 0 -1.52588e-005
              CHANNELS 3 Zrotation Xrotation Yrotation
              JOINT LeftForeArm
              {
                OFFSET 28.5802 0 0
                CHANNELS 3 Zrotation Xrotation Yrotation
                JOINT LeftHand
                {
                  OFFSET 27.092 0 0
                  CHANNELS 3 Zrotation Xrotation Yrotation
                  End Site
                  {
                    OFFSET 9.55928 -0.186424 0.145352
                  }
                }
              }
            }
          }
          JOINT RightShoulder
          {
            OFFSET -6.20654 0.708866 -7.28218
            CHANNELS 3 Zrotation Xrotation Yrotation
            JOINT RightArm
            {
              OFFSET 14.108 0 1.52588e-005
              CHANNELS 3 Zrotation Xrotation Yrotation
              JOINT RightForeArm
              {
                OFFSET 28.5802 0 0
                CHANNELS 3 Zrotation Xrotation Yrotation
                JOINT RightHand
                {
                  OFFSET 27.092 0 0
                  CHANNELS 3 Zrotation Xrotation Yrotation
                  End Site
                  {
                    OFFSET 9.55929 -0.186417 -0.145354
                  }
                }
              }
            }
          }
        }
      }
    }
  }
  JOINT LeftUpLeg
  {
    OFFSET 0.005 -0.535 8.837
    CHANNELS 3 Zrotation Xrotation Yrotation
    JOINT LeftLeg
    {
      OFFSET 39.9035 0 0
      CHANNELS 3 Zrotation Xrotation Yrotation
      JOINT LeftFoot
      {
        OFFSET 39.6689 0 0
        CHANNELS 3 Zrotation Xrotation Yrotation
        JOINT LeftToe
        {
          OFFSET 10.1624 13.6296 0
          CHANNELS 3 Zrotation Xrotation Yrotation
          End Site
          {
            OFFSET 8.38147 0 0
          }
        }
      }
    }
  }
  JOINT RightUpLeg
  {
    OFFSET 0.005 -0.535 -8.837
    CHANNELS 3 Zrotation Xrotation Yrotation
    JOINT RightLeg
    {
      OFFSET 39.9035 0 0
      CHANNELS 3 Zrotation Xrotation Yrotation
      JOINT RightFoot
      {
        OFFSET 39.6689 0 0
        CHANNELS 3 Zrotation Xrotation Yrotation
        JOINT RightToe
        {
          OFFSET 10.1624 13.6296 0
          CHANNELS 3 Zrotation Xrotation Yrotation
          End Site
          {
            OFFSET 8.38147 0 0
          }
        }
      }
    }
  }
}
MOTION
Frames:	12
Frame Time:	0.0333333
482.868 89.1906 50.369 -135.944 -88.328 133.122 0.789184 -0.692282 0.451633 1.58397 -1.37778 0.913018 1.58397 -1.37778 0.913009 -8.30748e-012 -9.0191e-006 -5.27751e-005 20.3558 0.034878 -2.17722 -179.629 -6.51268 -86.7342 86.9867 -69.8075 82.0164 -6.05464 -2.38542e-015 -0 -45.1523 -23.8404 -42.2495 -179.999 -0.202001 90.1952 58.8799 57.3207 -53.8137 -19.0195 0 6.36111e-015 -35.137 40.0313 43.7086 -6.68569 8.16885 -178.204 -18.2763 -7.95139e-016 -0 16.5474 10.7496 -3.77465 90 -4.96962e-017 -7.95139e-016 -1.02197 -9.57876 -177.505 -9.8509 -1.59028e-015 -9.93923e-016 9.6904 -6.70429 2.51944 90 -1.49399e-015 7.95139e-016 
482.751 89.1769 50.3772 -131.821 -88.6516 137.286 0.798766 -0.732743 0.435319 1.60327 -1.45885 0.881081 1.60327 -1.45885 0.881071 -8.30669e-012 -9.0191e-006 -5.27751e-005 20.0893 0.0473505 -1.98391 -179.633 -6.5151 -86.7694 84.6081 -69.6186 80.0837 -6.60401 -3.97569e-015 1.59028e-015 -45.1888 -23.6951 -42.0114 -179.999 -0.151189 90.2292 58.9915 57.3639 -53.8796 -19.0772 3.18055e-015 -0 -35.6691 39.8373 44.1028 -6.40904 7.95903 -178.367 -18.3366 1.59028e-015 5.96354e-016 16.5625 10.6784 -3.62275 90 9.19379e-016 -0 -0.6311 -9.4455 -177.569 -9.66593 4.77083e-015 9.93923e-016 9.61334 -6.44179 2.21524 90 -9.93923e-017 -1.59028e-015 
482.649 89.1612 50.3517 -125.452 -88.9731 143.688 0.794644 -0.772028 0.427207 1.59524 -1.53756 0.865359 1.59524 -1.53756 0.86535 -8.30748e-012 -9.0191e-006 -5.27751e-005 20.0051 0.150295 -1.95261 -179.629 -6.49025 -86.7194 82.1326 -69.463 77.9422 -7.00247 1.59028e-015 -0 -45.2627 -23.7724 -42.1078 -180 -0.114879 90.18 59.0831 57.5122 -53.8335 -19.0596 -3.18055e-015 -3.18055e-015 -36.4709 39.5217 44.6435 -6.1051 7.70685 -178.518 -18.3799 0 1.98785e-016 16.5923 10.5837 -3.44532 90 -9.19379e-016 -7.95139e-016 -0.221122 -9.38757 -177.619 -9.50139 1.59028e-015 -0 9.57014 -6.21312 1.94965 90 3.32343e-016 1.59028e-015 
482.568 89.1459 50.2998 -115.968 -89.2137 153.153 0.765576 -0.79881 0.44468 1.53755 -1.59111 0.900287 1.53755 -1.59111 0.900278 -8.30828e-012 -9.0191e-006 -5.27751e-005 20.1567 0.384183 -2.08976 -179.629 -6.47706 -86.719 81.5149 -69.435 77.5358 -7.02203 0 3.18055e-015 -44.9672 -24.0712 -42.1152 180 -1.98767e-030 90 58.7952 57.82 -53.4769 -19.1249 3.18055e-015 4.77083e-015 -37.5487 39.347 45.5317 -5.89632 7.6573 -178.57 -18.54 -1.59028e-015 -0 16.7636 10.6179 -3.33846 90 -4.96962e-016 -0 0.13661 -9.36325 -177.622 -9.38619 3.18056e-015 1.59028e-015 9.56468 -6.09294 1.82157 90 -2.17421e-016 -0 
482.494 89.1327 50.2105 -92.6353 -89.3724 176.465 0.740429 -0.825942 0.473426 1.48789 -1.64519 0.957798 1.48789 -1.64519 0.957789 -8.30748e-012 -9.0191e-006 -5.27751e-005 20.3938 0.875568 -2.47321 -179.633 -6.44058 -86.7324 82.72 -69.7084 78.6699 -6.44497 -3.97569e-015 7.95139e-016 -44.4477 -24.222 -41.7332 -179.998 0.197022 89.5186 58.3404 58.0811 -53.08 -19.509 6.36111e-015 -3.18055e-015 -37.9068 39.3448 45.7454 -5.51072 7.46274 -178.648 -18.5409 0 1.98785e-016 16.7999 10.4786 -3.158 90 -4.22417e-016 7.95139e-016 0.5393 -9.41018 -177.647 -9.34913 -1.59028e-015 -0 9.61686 -6.05715 1.78869 90 -3.60297e-016 -7.95139e-016 
482.438 89.1255 50.1005 -66.4661 -89.211 -157.411 0.725835 -0.827199 0.518442 1.45935 -1.64726 1.04765 1.45935 -1.64726 1.04764 -8.30867e-012 -9.0191e-006 -5.27751e-005 20.5608 1.31838 -3.03945 -179.633 -6.4101 -86.7188 84.8784 -70.1315 80.5775 -5.57593 0 -1.59028e-015 -44.2895 -24.177 -41.6034 -179.995 0.33183 89.1216 57.6748 57.9988 -52.5256 -20.0752 0 3.18055e-015 -37.3759 39.5307 45.1381 -5.02111 7.30789 -178.699 -18.4318 -7.95139e-016 -3.97569e-016 16.7439 10.2378 -2.95709 90 2.73329e-016 -0 0.989823 -9.29136 -177.636 -9.27234 3.18056e-015 5.96354e-016 9.64545 -6.05792 1.81792 90 -1.70831e-016 7.95139e-016 
482.387 89.1133 49.9923 -57.5479 -88.7909 -148.534 0.714096 -0.798829 0.558961 1.43616 -1.59012 1.12816 1.43616 -1.59012 1.12815 -8.30748e-012 -9.0191e-006 -5.27751e-005 20.5609 1.77314 -3.57092 -179.64 -6.33977 -86.7391 87.2444 -70.4492 82.497 -4.95696 0 -7.95139e-016 -44.3503 -24.1002 -41.7554 -179.992 0.390131 88.7783 56.7145 57.6222 -51.7409 -20.3122 -3.18055e-015 4.77083e-015 -36.8866 39.7073 44.4948 -4.54593 7.38319 -178.72 -18.373 -1.59028e-015 1.98785e-016 16.7383 10.0318 -2.81772 90 -2.48481e-017 -7.95139e-016 1.31439 -9.03712 -177.65 -9.36577 -3.18056e-015 1.98785e-016 9.73316 -6.07123 1.85315 90 9.78393e-016 -0 
482.332 89.0999 49.8888 -54.6631 -88.3076 -145.656 0.704689 -0.762252 0.587349 1.41734 -1.51671 1.18435 1.41734 -1.51671 1.18434 -8.30669e-012 -9.0191e-006 -5.27751e-005 20.5201 2.10279 -3.91672 -179.639 -6.42062 -86.7746 88.9227 -70.5976 83.8709 -4.73726 3.97569e-016 -0 -44.4437 -24.2022 -42.0401 -179.989 0.411985 88.5303 56.082 57.2815 -51.3052 -20.0865 0 1.59028e-015 -36.449 39.7537 44.0139 -4.03797 7.47693 -178.785 -18.2461 0 -1.98785e-016 16.6664 9.77602 -2.66925 90 1.73937e-016 7.95139e-016 1.4754 -8.79192 -177.736 -9.74053 0 -1.98785e-016 9.94965 -6.16208 1.97316 90 4.4416e-016 -1.59028e-015 
482.281 89.0845 49.7876 -52.5492 -87.862 -143.538 0.698458 -0.734723 0.612541 1.4049 -1.46141 1.23431 1.4049 -1.46141 1.2343 -8.30708e-012 -9.0191e-006 -5.27751e-005 20.5043 2.33435 -4.19538 -179.627 -6.59246 -86.752 89.7915 -70.6876 84.5684 -4.76141 0 -7.95139e-016 -44.446 -24.2646 -42.1635 -179.991 0.346931 88.4397 56.1466 57.1391 -51.4503 -19.3185 0 -1.59028e-015 -36.3017 39.6469 43.8599 -3.58933 7.66026 -178.838 -18.2118 0 -0 16.7108 9.64537 -2.57851 90 -2.23633e-016 -7.95139e-016 1.64617 -8.55531 -177.822 -10.0849 -1.59028e-015 -3.97569e-016 10.1556 -6.21548 2.0487 90 1.92573e-016 7.95139e-016 
482.231 89.0707 49.6816 -49.0511 -87.527 -140.018 0.694578 -0.72003 0.628508 1.40211 -1.43184 1.26604 1.40211 -1.43184 1.26603 -8.30808e-012 -9.0191e-006 -5.27751e-005 20.3891 2.32157 -4.09152 -179.616 -6.68317 -86.7032 90.7442 -70.8676 85.324 -4.62463 -1.98785e-016 -2.38542e-015 -44.4872 -23.8723 -41.6786 -179.993 0.251634 88.4151 56.6922 57.1924 -51.8404 -18.172 -6.36111e-015 -0 -36.4235 39.4055 43.9544 -3.1254 7.6808 -178.923 -18.1278 -1.59028e-015 -5.96354e-016 16.6925 9.49251 -2.48291 90 1.3418e-015 7.95139e-016 1.92057 -8.38836 -177.896 -10.262 0 5.96354e-016 10.2983 -6.21878 2.03938 90 -3.85145e-016 7.95139e-016 
482.182 89.0555 49.5767 -44.0672 -87.3464 -135.011 0.692908 -0.728708 0.639666 1.39408 -1.44911 1.28842 1.39408 -1.44911 1.28841 -8.30748e-012 -9.0191e-006 -5.27751e-005 20.3067 2.25157 -3.98361 -179.61 -6.7343 -86.6792 90.4963 -70.9046 84.99 -4.69816 -7.95139e-016 2.38542e-015 -44.4247 -23.8541 -41.6172 -179.995 0.186 88.4255 57.4731 57.2488 -52.3263 -17.1202 0 -1.59028e-015 -36.9161 39.3664 44.5205 -2.7965 7.68908 -178.982 -18.2044 -2.38542e-015 -1.98785e-016 16.8188 9.50878 -2.47559 90 -6.70898e-016 -7.95139e-016 2.34888 -8.27243 -177.921 -10.1184 0 -0 10.3058 -6.09749 1.85127 90 -2.42269e-016 7.95139e-016 
482.124 89.0421 49.4675 -37.1929 -87.254 -128.105 0.698725 -0.757553 0.653468 1.40623 -1.50656 1.31646 1.40623 -1.50656 1.31645 -8.30768e-012 -9.0191e-006 -5.27751e-005 20.1658 2.02952 -3.77894 -179.602 -6.77933 -86.6344 90.3162 -70.9157 84.782 -4.68638 3.97569e-016 -0 -44.4292 -23.7803 -41.6024 -179.993 0.231918 88.3884 58.1113 57.301 -52.5923 -16.4945 6.36111e-015 -0 -37.3337 39.4255 45.0365 -2.48662 7.58533 -179.063 -18.2915 1.59028e-015 3.97569e-016 16.9408 9.5496 -2.48558 90 -1.98785e-016 -1.59028e-015 2.88106 -8.28001 -177.937 -9.80782 1.59028e-015 7.95139e-016 10.2539 -5.94038 1.61493 90 2.14315e-016 -0 
